<svg width="48" height="42" viewBox="0 0 48 42" fill="none" xmlns="http://www.w3.org/2000/svg">
<rect width="47.4678" height="41.484" rx="4" fill="white"/>
<path d="M41.4678 12L36.0678 29.484H32.3958L29.1078 18.648C29.0438 18.48 28.9838 18.296 28.9278 18.096C28.8718 17.888 28.8158 17.672 28.7598 17.448C28.7038 17.672 28.6478 17.888 28.5918 18.096C28.5358 18.296 28.4758 18.48 28.4118 18.648L25.0758 29.484H21.4038L16.0038 12H19.4118C19.7638 12 20.0558 12.08 20.2878 12.24C20.5278 12.4 20.6838 12.612 20.7558 12.876L23.1558 21.996C23.2278 22.284 23.2998 22.6 23.3718 22.944C23.4438 23.28 23.5158 23.632 23.5878 24C23.7318 23.248 23.9078 22.58 24.1158 21.996L26.9478 12.876C27.0198 12.652 27.1718 12.452 27.4038 12.276C27.6438 12.092 27.9318 12 28.2678 12H29.4678C29.8198 12 30.1038 12.084 30.3198 12.252C30.5358 12.412 30.6998 12.62 30.8118 12.876L33.6198 21.996C33.8278 22.556 34.0038 23.192 34.1478 23.904C34.2118 23.544 34.2758 23.208 34.3398 22.896C34.4118 22.576 34.4838 22.276 34.5558 21.996L36.9558 12.876C37.0198 12.644 37.1718 12.44 37.4118 12.264C37.6518 12.088 37.9398 12 38.2758 12H41.4678Z" fill="black"/>
<path d="M12.08 29.484H8V12H12.08V29.484Z" fill="black"/>
</svg>
